<?xml version="1.0" encoding="utf-8"?>
<!-- Generator: Adobe Illustrator 24.3.0, SVG Export Plug-In . SVG Version: 6.00 Build 0)  -->
<svg version="1.1" id="Layer_1" xmlns="http://www.w3.org/2000/svg" xmlns:xlink="http://www.w3.org/1999/xlink" x="0px" y="0px"
	 viewBox="0 0 400 400" style="enable-background:new 0 0 400 400;" xml:space="preserve">
<style type="text/css">
	.st0{fill:#FFFFFF;}
</style>
<path class="st0" d="M321.05,310.01c-0.46-8.59-0.99-13.91-1-19.22c-0.05-43.05-0.01-86.11,0.01-129.16
	c0.02-39.3-26.42-65.73-65.72-65.69c-47.11,0.04-94.21,0.06-141.32,0.09c-5.46,0-10.92,0-16.18,0
	c-2.97-29.11,20.67-52.24,49.38-48.46c60.7,7.99,121.33,16.61,181.86,25.81c28.55,4.34,43.81,24.17,40.25,52.73
	c-6.27,50.21-13.62,100.29-21.17,150.33C345.07,290.26,337.85,301.62,321.05,310.01z"/>
<path class="st0" d="M295.73,160.37c-0.06-24.05-15.92-40.14-39.93-40.2c-59.79-0.15-119.59-0.09-179.38,0
	c-24.79,0.04-40.46,16.17-40.45,41.16c0.03,48.64,0.03,97.29,0.01,145.93c-0.01,25.18,15.29,40.61,40.61,40.67
	c29.39,0.07,58.78,0.02,88.17,0.02c30.4,0.01,60.81,0.11,91.21-0.03c24.18-0.11,39.71-15.77,39.76-40.09
	C295.83,258.68,295.84,209.53,295.73,160.37z M218.4,234.04c0,7.28-5.9,13.18-13.18,13.18h-26.2v28.27c0,7.28-5.9,13.18-13.18,13.18
	h0c-7.28,0-13.18-5.9-13.18-13.18v-28.27h-26.4c-6.77,0-12.7-4.96-13.44-11.68c-0.88-7.95,5.32-14.68,13.1-14.68h26.8l0-26.41
	c0-6.77,4.96-12.7,11.68-13.44c7.95-0.88,14.68,5.32,14.68,13.1v26.76h26.15c7.23,0,13.1,5.83,13.17,13.04c0,0,0,0,0.01,0.01
	c0,0,0,0-0.01,0.01C218.39,233.96,218.4,234,218.4,234.04z"/>
</svg>
